<svg width="21" height="21" viewBox="0 0 21 21" fill="none" xmlns="http://www.w3.org/2000/svg">
<path d="M18.6339 9.47274L15.1183 12.5063L16.1894 17.0431C16.2485 17.2893 16.2333 17.5476 16.1457 17.7852C16.0581 18.0229 15.902 18.2292 15.6972 18.3782C15.4923 18.5272 15.248 18.6121 14.9949 18.6222C14.7418 18.6324 14.4914 18.5673 14.2753 18.4352L10.33 16.0071L6.38237 18.4352C6.1663 18.5666 5.9162 18.631 5.66358 18.6205C5.41095 18.61 5.16708 18.5249 4.96269 18.3761C4.75829 18.2272 4.60251 18.0212 4.51496 17.784C4.4274 17.5468 4.41199 17.289 4.47065 17.0431L5.54565 12.5063L2.03003 9.47274C1.83886 9.30752 1.7006 9.08963 1.63252 8.84629C1.56444 8.60296 1.56955 8.34496 1.64723 8.10452C1.7249 7.86407 1.8717 7.65184 2.06927 7.49432C2.26685 7.33681 2.50645 7.24099 2.75815 7.21884L7.36753 6.84696L9.14565 2.54384C9.2419 2.30932 9.40571 2.10872 9.61626 1.96754C9.8268 1.82636 10.0746 1.75098 10.3281 1.75098C10.5816 1.75098 10.8293 1.82636 11.0399 1.96754C11.2504 2.10872 11.4143 2.30932 11.5105 2.54384L13.2878 6.84696L17.8972 7.21884C18.1494 7.24017 18.3897 7.33545 18.588 7.49275C18.7863 7.65005 18.9338 7.86236 19.0119 8.1031C19.0901 8.34383 19.0955 8.60228 19.0274 8.84606C18.9593 9.08984 18.8208 9.30811 18.6292 9.47352L18.6339 9.47274Z" fill="#FFC216"/>
</svg>
